<svg id="svg_logo" version="1.1" width="400" height="400" viewBox="0 0 400 400" xmlns="http://www.w3.org/2000/svg" xmlns:xlink="http://www.w3.org/1999/xlink">
  <g id="svg_g_logo">
    <path id="path_logo_0" d="M4.007 0.322 C 4.007 0.499,3.679 0.729,3.279 0.834 C 2.843 0.948,2.550 1.331,2.550 1.787 C 2.550 2.222,2.315 2.550,2.004 2.550 C 1.658 2.550,1.457 2.898,1.457 3.495 C 1.457 4.133,1.221 4.502,0.729 4.630 C -0.139 4.857,-0.458 86.854,0.408 87.143 C 0.633 87.218,0.807 87.986,0.795 88.851 C 0.775 90.325,0.829 90.412,1.662 90.253 C 2.494 90.094,2.762 90.461,2.593 91.530 C 2.570 91.680,3.288 91.803,4.189 91.803 C 5.694 91.803,5.829 91.878,5.829 92.712 L 5.829 93.620 96.548 93.620 L 187.267 93.620 187.681 92.712 C 188.056 91.890,189.165 91.531,190.619 91.760 C 190.770 91.784,190.893 91.475,190.893 91.075 C 190.893 90.551,191.135 90.346,191.756 90.346 C 192.421 90.346,192.609 90.158,192.575 89.526 C 192.544 88.937,192.762 88.674,193.352 88.590 C 193.956 88.505,194.171 88.231,194.171 87.549 C 194.171 86.739,194.287 86.653,195.101 86.857 C 195.747 87.020,196.011 86.949,195.968 86.624 C 195.833 85.605,196.023 85.246,196.696 85.246 C 197.148 85.246,197.441 84.953,197.516 84.426 C 197.599 83.837,197.862 83.619,198.452 83.650 C 199.083 83.684,199.271 83.496,199.271 82.831 C 199.271 82.202,199.475 81.967,200.021 81.967 C 200.434 81.967,200.678 81.816,200.565 81.632 C 200.255 81.131,201.398 80.146,202.014 80.382 C 202.378 80.522,202.550 80.349,202.550 79.845 C 202.550 79.422,202.864 79.002,203.279 78.871 C 203.679 78.743,204.007 78.323,204.007 77.935 C 204.007 77.433,204.260 77.231,204.893 77.231 C 205.534 77.231,205.810 77.005,205.895 76.412 C 205.972 75.864,206.223 75.628,206.648 75.699 C 207.113 75.777,207.286 75.561,207.286 74.905 C 207.286 74.253,207.509 73.971,208.091 73.887 C 208.544 73.821,208.982 73.435,209.093 73.003 C 209.218 72.517,209.533 72.273,209.955 72.338 C 210.397 72.405,210.556 72.269,210.426 71.931 C 210.204 71.353,211.192 70.204,211.661 70.494 C 211.831 70.599,212.023 70.313,212.088 69.860 C 212.173 69.268,212.424 69.057,212.976 69.113 C 213.562 69.172,213.736 68.998,213.704 68.384 C 213.673 67.809,213.896 67.544,214.481 67.461 C 215.008 67.386,215.301 67.093,215.301 66.641 C 215.301 66.134,215.554 65.938,216.211 65.938 C 216.940 65.938,217.122 65.756,217.122 65.027 C 217.122 64.359,217.316 64.117,217.851 64.117 C 218.336 64.117,218.579 63.874,218.579 63.388 C 218.579 62.854,218.822 62.659,219.490 62.659 C 220.219 62.659,220.401 62.477,220.401 61.749 C 220.401 61.072,220.594 60.838,221.151 60.838 C 221.563 60.838,221.820 60.707,221.721 60.547 C 221.417 60.055,222.065 59.347,222.875 59.286 C 223.414 59.246,223.622 59.007,223.571 58.486 C 223.519 57.966,223.742 57.709,224.317 57.626 C 224.843 57.551,225.137 57.257,225.137 56.805 C 225.137 56.134,225.495 55.943,226.508 56.076 C 226.762 56.109,226.948 56.006,226.921 55.846 C 226.794 55.095,227.017 54.714,227.687 54.539 C 228.123 54.425,228.415 54.042,228.415 53.586 C 228.415 53.006,228.644 52.823,229.369 52.823 C 230.142 52.823,230.286 52.686,230.131 52.095 C 229.980 51.515,230.120 51.366,230.817 51.366 C 231.510 51.366,231.694 51.175,231.694 50.455 C 231.694 49.787,231.888 49.545,232.423 49.545 C 232.908 49.545,233.151 49.302,233.151 48.816 C 233.151 48.300,233.394 48.087,233.984 48.087 C 234.577 48.087,234.835 47.860,234.877 47.301 C 234.939 46.476,235.643 45.823,236.139 46.129 C 236.299 46.228,236.430 45.971,236.430 45.559 C 236.430 45.002,236.664 44.809,237.341 44.809 C 238.069 44.809,238.251 44.627,238.251 43.898 C 238.251 43.230,238.446 42.987,238.980 42.987 C 239.522 42.987,239.709 42.744,239.709 42.037 C 239.709 41.193,239.816 41.114,240.665 41.327 C 241.538 41.546,241.606 41.485,241.444 40.638 C 241.295 39.854,241.401 39.709,242.127 39.709 C 242.744 39.709,242.987 39.503,242.987 38.980 C 242.987 38.323,243.582 38.041,244.581 38.223 C 244.756 38.255,244.820 37.865,244.722 37.356 C 244.572 36.570,244.679 36.430,245.427 36.430 C 245.912 36.430,246.216 36.279,246.102 36.095 C 245.803 35.611,246.998 34.532,247.584 34.756 C 247.856 34.861,248.061 34.829,248.040 34.686 C 247.929 33.942,248.159 33.542,248.816 33.333 C 249.217 33.206,249.545 32.785,249.545 32.398 C 249.545 31.882,249.799 31.694,250.494 31.694 C 251.152 31.694,251.385 31.539,251.251 31.192 C 251.003 30.544,251.673 29.873,252.321 30.122 C 252.669 30.255,252.823 30.022,252.823 29.365 C 252.823 28.676,253.013 28.415,253.513 28.415 C 254.175 28.415,254.808 27.517,254.499 27.016 C 254.417 26.884,281.056 26.818,313.696 26.869 L 373.042 26.962 373.042 47.179 L 373.042 67.395 318.611 67.395 L 264.181 67.395 264.281 68.306 C 264.375 69.166,264.283 69.217,262.609 69.217 C 261.635 69.217,260.857 69.340,260.881 69.490 C 261.061 70.631,260.794 71.073,260.064 70.842 C 259.578 70.687,259.375 70.734,259.518 70.966 C 259.939 71.648,259.313 72.495,258.388 72.495 C 257.654 72.495,257.512 72.638,257.665 73.224 C 257.841 73.897,257.404 74.158,256.375 73.996 C 256.225 73.972,256.102 74.362,256.102 74.863 C 256.102 75.531,255.908 75.774,255.373 75.774 C 254.888 75.774,254.645 76.017,254.645 76.503 C 254.645 76.903,254.481 77.252,254.281 77.277 C 254.080 77.302,253.711 77.343,253.461 77.368 C 253.210 77.393,252.985 77.618,252.960 77.869 C 252.935 78.119,252.894 78.488,252.869 78.689 C 252.844 78.889,252.495 79.053,252.095 79.053 C 251.609 79.053,251.366 79.296,251.366 79.781 C 251.366 80.316,251.123 80.510,250.455 80.510 C 249.954 80.510,249.564 80.633,249.588 80.783 C 249.750 81.812,249.489 82.249,248.816 82.073 C 248.225 81.918,248.087 82.062,248.087 82.835 C 248.087 83.720,247.616 84.015,246.512 83.823 C 246.346 83.794,246.316 84.102,246.445 84.508 C 246.664 85.199,246.200 85.465,245.082 85.289 C 244.932 85.265,244.809 85.656,244.809 86.157 C 244.809 86.988,244.582 87.136,243.443 87.046 C 243.292 87.034,243.077 87.403,242.963 87.866 C 242.833 88.397,242.531 88.667,242.143 88.600 C 241.701 88.523,241.530 88.751,241.530 89.419 C 241.530 90.159,241.351 90.346,240.640 90.346 C 239.946 90.346,239.781 90.507,239.891 91.075 C 240.001 91.647,239.835 91.803,239.120 91.803 C 238.618 91.803,238.301 91.952,238.413 92.135 C 238.810 92.777,238.163 93.625,237.277 93.625 C 236.547 93.625,236.424 93.760,236.612 94.353 C 236.828 95.035,236.357 95.301,235.246 95.125 C 235.096 95.101,234.973 95.492,234.973 95.993 C 234.973 96.661,234.778 96.903,234.244 96.903 C 233.767 96.903,233.515 97.146,233.515 97.607 C 233.515 98.059,233.223 98.352,232.696 98.426 C 232.169 98.501,231.835 98.836,231.760 99.362 C 231.685 99.889,231.392 100.182,230.940 100.182 C 230.480 100.182,230.237 100.434,230.237 100.911 C 230.237 101.445,229.994 101.639,229.326 101.639 C 228.825 101.639,228.435 101.762,228.458 101.913 C 228.577 102.664,228.348 103.069,227.687 103.279 C 227.286 103.406,226.958 103.827,226.958 104.214 C 226.958 104.841,226.358 105.122,225.382 104.952 C 225.217 104.923,225.187 105.232,225.316 105.637 C 225.544 106.358,225.251 106.547,224.135 106.402 C 223.879 106.369,223.679 106.732,223.679 107.231 C 223.679 108.110,222.829 108.754,222.189 108.359 C 222.007 108.246,221.858 108.564,221.858 109.065 C 221.858 109.780,221.701 109.946,221.129 109.836 C 220.561 109.727,220.401 109.892,220.401 110.586 C 220.401 111.397,219.919 111.687,218.852 111.519 C 218.702 111.495,218.579 111.803,218.579 112.204 C 218.579 112.697,218.336 112.933,217.829 112.933 C 217.417 112.933,217.171 113.082,217.284 113.264 C 217.676 113.899,217.038 114.754,216.172 114.754 C 215.479 114.754,215.301 114.946,215.301 115.689 C 215.301 116.459,215.171 116.584,214.572 116.393 C 213.972 116.203,213.843 116.328,213.843 117.097 C 213.843 117.779,213.652 118.033,213.139 118.033 C 212.752 118.033,212.331 118.361,212.204 118.761 C 211.994 119.423,211.589 119.652,210.838 119.533 C 210.688 119.509,210.565 119.900,210.565 120.401 C 210.565 121.069,210.370 121.311,209.836 121.311 C 209.350 121.311,209.107 121.554,209.107 122.040 C 209.107 122.733,208.756 122.928,207.741 122.796 C 207.481 122.762,207.286 123.133,207.286 123.663 C 207.286 124.347,207.095 124.590,206.557 124.590 C 206.072 124.590,205.829 124.833,205.829 125.319 C 205.829 125.853,205.586 126.047,204.918 126.047 C 204.417 126.047,204.027 126.170,204.050 126.321 C 204.213 127.350,203.952 127.786,203.279 127.610 C 202.687 127.455,202.550 127.599,202.550 128.373 C 202.550 129.250,202.096 129.542,201.002 129.369 C 200.852 129.345,200.729 129.654,200.729 130.055 C 200.729 130.707,200.350 130.954,199.545 130.826 C 199.394 130.803,199.271 131.193,199.271 131.694 C 199.271 132.539,198.772 132.833,197.678 132.633 C 197.504 132.601,197.450 132.808,197.559 133.092 C 197.815 133.759,197.147 134.427,196.480 134.171 C 196.196 134.062,195.989 134.116,196.021 134.290 C 196.221 135.384,195.927 135.883,195.082 135.883 C 194.581 135.883,194.191 136.006,194.214 136.157 C 194.342 136.962,194.095 137.341,193.443 137.341 C 193.042 137.341,192.733 137.464,192.757 137.614 C 192.930 138.708,192.638 139.162,191.761 139.162 C 190.987 139.162,190.843 139.299,190.998 139.891 C 191.150 140.470,191.009 140.619,190.312 140.619 C 189.516 140.619,189.435 140.770,189.435 142.259 C 189.435 143.654,189.327 143.898,188.708 143.898 C 187.983 143.898,187.981 144.201,187.981 250.455 C 187.981 356.710,187.983 357.013,188.708 357.013 C 189.327 357.013,189.435 357.257,189.435 358.652 C 189.435 360.141,189.516 360.291,190.312 360.291 C 191.009 360.291,191.150 360.441,190.998 361.020 C 190.843 361.612,190.987 361.749,191.761 361.749 C 192.638 361.749,192.930 362.203,192.757 363.297 C 192.733 363.447,193.452 363.570,194.353 363.570 C 195.255 363.570,195.993 363.734,195.993 363.934 C 195.993 364.176,223.315 364.299,277.231 364.299 C 331.148 364.299,358.470 364.176,358.470 363.934 C 358.470 363.734,359.217 363.570,360.131 363.570 C 361.044 363.570,361.699 363.421,361.587 363.239 C 361.190 362.597,361.837 361.749,362.723 361.749 C 363.453 361.749,363.576 361.614,363.388 361.020 C 363.172 360.339,363.643 360.073,364.754 360.248 C 364.904 360.272,365.027 359.882,365.027 359.381 C 365.027 358.713,365.222 358.470,365.756 358.470 C 366.233 358.470,366.485 358.227,366.485 357.767 C 366.485 357.315,366.777 357.022,367.304 356.947 C 367.831 356.872,368.165 356.538,368.240 356.011 C 368.315 355.484,368.608 355.191,369.060 355.191 C 369.520 355.191,369.763 354.940,369.763 354.463 C 369.763 353.928,370.006 353.734,370.674 353.734 C 371.175 353.734,371.565 353.611,371.542 353.461 C 371.423 352.710,371.652 352.305,372.313 352.095 C 372.714 351.968,373.042 351.547,373.042 351.159 C 373.042 350.532,373.642 350.252,374.618 350.421 C 374.783 350.450,374.813 350.142,374.684 349.736 C 374.456 349.016,374.749 348.826,375.865 348.971 C 376.121 349.004,376.321 348.641,376.321 348.142 C 376.321 347.263,377.171 346.620,377.811 347.015 C 377.993 347.128,378.142 346.810,378.142 346.308 C 378.142 345.593,378.299 345.427,378.871 345.537 C 379.439 345.647,379.599 345.482,379.599 344.788 C 379.599 343.977,380.081 343.686,381.148 343.855 C 381.298 343.879,381.421 343.570,381.421 343.169 C 381.421 342.677,381.664 342.441,382.171 342.441 C 382.583 342.441,382.829 342.292,382.716 342.109 C 382.324 341.475,382.962 340.619,383.828 340.619 C 384.521 340.619,384.699 340.428,384.699 339.684 C 384.699 338.914,384.829 338.790,385.428 338.980 C 386.028 339.170,386.157 339.045,386.157 338.276 C 386.157 337.594,386.348 337.341,386.861 337.341 C 387.248 337.341,387.669 337.013,387.796 336.612 C 388.006 335.950,388.411 335.722,389.162 335.840 C 389.312 335.864,389.435 335.474,389.435 334.973 C 389.435 334.305,389.630 334.062,390.164 334.062 C 390.650 334.062,390.893 333.819,390.893 333.333 C 390.893 332.640,391.244 332.446,392.259 332.578 C 392.519 332.611,392.714 332.240,392.714 331.710 C 392.714 331.026,392.905 330.783,393.443 330.783 C 393.928 330.783,394.171 330.540,394.171 330.055 C 394.171 329.520,394.414 329.326,395.082 329.326 C 395.583 329.326,395.973 329.203,395.950 329.053 C 395.787 328.024,396.048 327.587,396.721 327.763 C 397.313 327.918,397.450 327.774,397.450 327.001 C 397.450 326.124,397.904 325.831,398.998 326.004 C 399.148 326.028,399.271 325.310,399.271 324.408 C 399.271 323.506,399.435 322.769,399.636 322.769 C 400.178 322.769,400.135 277.337,399.592 277.156 C 399.367 277.081,399.193 276.313,399.205 275.448 C 399.225 273.974,399.171 273.887,398.338 274.046 C 397.505 274.205,397.385 274.053,397.471 272.951 C 397.483 272.801,397.114 272.584,396.652 272.469 C 396.086 272.329,395.835 272.024,395.885 271.538 C 395.947 270.933,395.712 270.800,394.454 270.726 C 392.639 270.619,392.318 270.451,392.587 269.752 C 392.767 269.283,385.266 269.217,331.733 269.217 L 270.674 269.217 270.674 248.816 L 270.674 228.415 312.785 228.415 C 354.589 228.415,354.897 228.410,355.086 227.687 C 355.240 227.098,355.583 226.958,356.873 226.958 C 358.334 226.958,358.470 226.880,358.470 226.047 C 358.470 225.324,358.653 225.137,359.360 225.137 C 360.040 225.137,360.218 224.972,360.116 224.441 C 360.021 223.950,360.242 223.679,360.863 223.524 C 361.348 223.402,361.726 223.182,361.703 223.035 C 361.574 222.192,361.852 221.858,362.684 221.858 C 363.453 221.858,363.578 221.729,363.388 221.129 C 363.175 220.459,363.486 220.217,364.383 220.355 C 364.530 220.378,364.753 219.988,364.878 219.488 C 365.021 218.920,365.365 218.579,365.795 218.579 C 366.242 218.579,366.485 218.322,366.485 217.851 C 366.485 217.354,366.727 217.122,367.247 217.122 C 367.699 217.122,368.086 216.830,368.197 216.406 C 368.300 216.011,368.695 215.591,369.074 215.470 C 369.453 215.350,369.763 214.952,369.763 214.587 C 369.763 214.176,370.123 213.832,370.707 213.685 C 371.337 213.527,371.583 213.272,371.447 212.917 C 371.252 212.408,371.610 212.232,372.587 212.359 C 372.847 212.393,373.042 212.021,373.042 211.491 C 373.042 210.818,373.235 210.565,373.746 210.565 C 374.133 210.565,374.554 210.237,374.681 209.836 C 374.808 209.435,375.229 209.107,375.617 209.107 C 376.125 209.107,376.321 208.854,376.321 208.197 C 376.321 207.468,376.503 207.286,377.231 207.286 C 377.899 207.286,378.142 207.092,378.142 206.557 C 378.142 206.072,378.385 205.829,378.871 205.829 C 379.405 205.829,379.599 205.586,379.599 204.918 C 379.599 204.189,379.781 204.007,380.510 204.007 C 381.245 204.007,381.421 203.827,381.421 203.072 C 381.421 202.302,381.550 202.178,382.149 202.368 C 382.749 202.558,382.878 202.433,382.878 201.664 C 382.878 200.909,383.054 200.729,383.789 200.729 C 384.514 200.729,384.699 200.546,384.699 199.829 C 384.699 199.191,384.854 198.989,385.231 199.134 C 385.585 199.270,385.841 199.023,385.999 198.394 C 386.145 197.810,386.489 197.450,386.900 197.450 C 387.266 197.450,387.663 197.140,387.784 196.761 C 387.904 196.382,388.325 195.987,388.719 195.884 C 389.143 195.773,389.435 195.386,389.435 194.934 C 389.435 194.414,389.667 194.171,390.164 194.171 C 390.641 194.171,390.893 193.928,390.893 193.468 C 390.893 193.016,391.185 192.723,391.712 192.648 C 392.163 192.584,392.552 192.327,392.577 192.077 C 392.602 191.826,392.643 191.473,392.668 191.291 C 392.694 191.109,393.042 191.046,393.443 191.151 C 394.034 191.306,394.171 191.162,394.171 190.389 C 394.171 189.864,394.327 189.435,394.517 189.435 C 394.707 189.435,395.301 189.029,395.838 188.531 C 396.374 188.034,396.956 187.716,397.131 187.824 C 397.307 187.933,397.450 187.602,397.450 187.089 C 397.450 186.337,397.626 186.157,398.361 186.157 C 399.197 186.157,399.271 186.023,399.271 184.517 C 399.271 183.616,399.435 182.878,399.636 182.878 C 400.178 182.878,400.134 140.725,399.592 140.544 C 399.367 140.469,399.193 139.701,399.205 138.836 C 399.225 137.362,399.171 137.275,398.338 137.434 C 397.505 137.593,397.385 137.441,397.471 136.339 C 397.483 136.189,397.114 135.972,396.652 135.857 C 396.086 135.717,395.835 135.412,395.885 134.926 C 395.947 134.321,395.712 134.188,394.454 134.114 C 392.639 134.006,392.318 133.839,392.587 133.140 C 392.767 132.671,385.574 132.605,334.283 132.605 C 276.017 132.605,275.774 132.608,275.774 133.333 C 275.774 133.978,275.208 134.260,274.226 134.105 C 274.076 134.081,273.953 134.472,273.953 134.973 C 273.953 135.785,273.612 136.060,272.769 135.927 C 272.618 135.903,272.495 136.211,272.495 136.612 C 272.495 137.150,272.253 137.341,271.569 137.341 C 271.039 137.341,270.667 137.536,270.701 137.796 C 270.833 138.811,270.639 139.162,269.945 139.162 C 269.403 139.162,269.217 139.405,269.217 140.112 C 269.217 140.944,269.103 141.034,268.306 140.834 C 267.515 140.635,267.395 140.726,267.395 141.523 C 267.395 142.198,267.202 142.441,266.667 142.441 C 266.266 142.441,265.957 142.564,265.981 142.714 C 266.114 143.557,265.840 143.898,265.027 143.898 C 264.526 143.898,264.136 144.021,264.160 144.171 C 264.315 145.154,264.033 145.719,263.388 145.719 C 262.902 145.719,262.659 145.962,262.659 146.448 C 262.659 147.093,262.094 147.375,261.111 147.220 C 260.961 147.196,260.838 147.494,260.838 147.881 C 260.838 148.268,260.510 148.689,260.109 148.816 C 259.709 148.943,259.381 149.364,259.381 149.751 C 259.381 150.215,259.129 150.455,258.643 150.455 C 258.193 150.455,257.772 150.808,257.562 151.359 C 257.316 152.006,257.042 152.195,256.600 152.026 C 256.206 151.875,256.071 151.931,256.226 152.182 C 256.609 152.803,256.090 153.734,255.360 153.734 C 254.948 153.734,254.651 154.046,254.579 154.554 C 254.498 155.124,254.229 155.361,253.695 155.334 C 253.133 155.305,252.937 155.501,252.966 156.063 C 252.993 156.597,252.756 156.866,252.186 156.947 C 251.346 157.066,251.067 158.359,251.587 159.715 C 251.788 160.238,257.567 160.291,313.336 160.291 L 374.863 160.291 374.863 165.938 C 374.863 171.682,374.838 171.787,373.492 171.611 C 373.238 171.577,373.052 171.681,373.079 171.841 C 373.206 172.592,372.983 172.972,372.313 173.147 C 371.877 173.261,371.585 173.644,371.585 174.101 C 371.585 174.680,371.356 174.863,370.631 174.863 C 369.858 174.863,369.714 175.000,369.869 175.592 C 370.020 176.172,369.880 176.321,369.183 176.321 C 368.490 176.321,368.306 176.512,368.306 177.231 C 368.306 177.899,368.112 178.142,367.577 178.142 C 367.092 178.142,366.849 178.385,366.849 178.871 C 366.849 179.387,366.606 179.599,366.016 179.599 C 365.423 179.599,365.165 179.826,365.123 180.386 C 365.061 181.211,364.357 181.864,363.861 181.557 C 363.701 181.459,363.570 181.715,363.570 182.128 C 363.570 182.685,363.336 182.878,362.659 182.878 C 361.931 182.878,361.749 183.060,361.749 183.789 C 361.749 184.457,361.554 184.699,361.020 184.699 C 360.478 184.699,360.291 184.942,360.291 185.650 C 360.291 186.494,360.184 186.573,359.335 186.360 C 358.462 186.141,358.394 186.201,358.556 187.049 C 358.705 187.833,358.599 187.978,357.873 187.978 C 357.256 187.978,357.013 188.184,357.013 188.707 C 357.013 189.364,356.418 189.646,355.419 189.463 C 355.244 189.431,355.180 189.822,355.278 190.331 C 355.428 191.116,355.321 191.257,354.573 191.257 C 354.088 191.257,353.784 191.408,353.898 191.592 C 354.197 192.076,353.002 193.155,352.416 192.930 C 352.144 192.826,351.939 192.857,351.960 193.000 C 352.071 193.744,351.841 194.145,351.184 194.353 C 350.783 194.481,350.455 194.901,350.455 195.289 C 350.455 195.804,350.201 195.993,349.506 195.993 C 348.848 195.993,348.615 196.147,348.749 196.495 C 348.997 197.143,348.327 197.813,347.679 197.565 C 347.331 197.431,347.177 197.664,347.177 198.322 C 347.177 199.011,346.987 199.271,346.487 199.271 C 345.825 199.271,345.192 200.170,345.501 200.670 C 345.583 200.803,322.961 200.869,295.229 200.817 L 244.809 200.724 244.809 248.813 L 244.809 296.903 308.925 296.903 L 373.042 296.903 373.042 304.918 C 373.042 312.910,373.006 313.157,371.858 312.976 C 371.708 312.952,371.585 313.342,371.585 313.843 C 371.585 314.716,371.268 314.923,370.169 314.770 C 369.827 314.722,369.728 314.943,369.862 315.455 C 370.021 316.066,369.891 316.211,369.183 316.211 C 368.490 316.211,368.306 316.403,368.306 317.122 C 368.306 317.790,368.112 318.033,367.577 318.033 C 367.092 318.033,366.849 318.276,366.849 318.761 C 366.849 319.299,366.606 319.490,365.922 319.490 C 365.392 319.490,365.021 319.685,365.055 319.945 C 365.179 320.907,365.007 321.311,364.472 321.311 C 364.166 321.311,363.756 321.732,363.561 322.247 C 363.287 322.966,363.035 323.128,362.468 322.948 C 362.062 322.819,361.754 322.849,361.783 323.014 C 361.938 323.909,361.683 324.590,361.193 324.590 C 360.888 324.590,360.485 324.992,360.298 325.483 C 360.057 326.117,359.742 326.334,359.213 326.232 C 358.582 326.111,358.501 326.226,358.690 326.979 C 358.884 327.752,358.789 327.869,357.963 327.869 C 357.256 327.869,357.013 328.055,357.013 328.597 C 357.013 329.291,356.662 329.485,355.647 329.353 C 355.396 329.321,355.191 329.618,355.191 330.014 C 355.191 330.414,354.867 330.837,354.463 330.965 C 354.062 331.093,353.734 331.513,353.734 331.901 C 353.734 332.421,353.480 332.605,352.763 332.605 C 352.228 332.605,351.895 332.708,352.021 332.835 C 352.435 333.248,351.559 334.407,350.996 334.192 C 350.603 334.041,350.455 334.244,350.455 334.934 C 350.455 335.704,350.283 335.883,349.545 335.883 C 348.877 335.883,348.634 336.078,348.634 336.612 C 348.634 337.338,348.391 337.341,281.967 337.341 L 215.301 337.341 215.301 246.971 C 215.301 185.242,215.181 156.377,214.923 155.894 C 214.604 155.299,214.705 155.117,215.560 154.739 C 216.119 154.491,216.785 154.089,217.042 153.845 C 217.298 153.601,217.749 153.493,218.043 153.606 C 218.431 153.755,218.579 153.549,218.579 152.862 C 218.579 152.166,218.767 151.913,219.283 151.913 C 219.671 151.913,220.091 151.585,220.219 151.184 C 220.429 150.522,220.833 150.294,221.585 150.412 C 221.735 150.436,221.839 150.332,221.815 150.182 C 221.659 149.194,221.941 148.634,222.596 148.634 C 223.046 148.634,223.467 148.282,223.677 147.730 C 223.905 147.129,224.208 146.898,224.579 147.040 C 224.986 147.197,225.137 147.015,225.137 146.367 C 225.137 145.681,225.323 145.486,225.956 145.508 C 226.580 145.530,226.769 145.341,226.747 144.718 C 226.725 144.094,226.921 143.898,227.567 143.898 C 228.172 143.898,228.415 143.689,228.415 143.169 C 228.415 142.769,228.579 142.420,228.780 142.395 C 228.980 142.370,229.349 142.329,229.599 142.303 C 229.850 142.278,230.055 141.929,230.055 141.529 C 230.055 141.052,230.337 140.761,230.874 140.685 C 231.475 140.600,231.694 140.325,231.694 139.659 C 231.694 138.914,231.827 138.791,232.423 138.980 C 233.022 139.170,233.151 139.045,233.151 138.276 C 233.151 137.393,233.659 137.100,234.791 137.328 C 234.991 137.368,235.038 137.284,234.894 137.141 C 234.511 136.757,235.276 135.519,235.896 135.519 C 236.190 135.519,236.430 135.191,236.430 134.791 C 236.430 134.141,237.008 133.858,237.995 134.025 C 238.155 134.051,238.237 133.784,238.178 133.430 C 238.105 132.998,238.338 132.749,238.889 132.670 C 239.482 132.586,239.709 132.309,239.709 131.669 C 239.709 130.967,239.898 130.783,240.619 130.783 C 241.287 130.783,241.530 130.589,241.530 130.055 C 241.530 129.402,241.909 129.156,242.714 129.283 C 242.864 129.307,242.968 129.203,242.944 129.053 C 242.786 128.050,243.070 127.505,243.750 127.505 C 244.206 127.505,244.589 127.212,244.703 126.776 C 244.811 126.363,245.200 126.047,245.601 126.047 C 245.991 126.047,246.216 125.897,246.102 125.712 C 245.835 125.280,246.885 124.226,247.583 124.226 C 247.892 124.226,248.074 123.955,248.012 123.588 C 247.942 123.167,248.176 122.912,248.703 122.837 C 249.199 122.767,249.543 122.423,249.613 121.927 C 249.687 121.410,249.983 121.129,250.454 121.129 C 250.855 121.129,251.203 120.924,251.229 120.674 C 251.254 120.423,251.296 120.055,251.321 119.854 C 251.346 119.654,251.694 119.490,252.095 119.490 C 252.580 119.490,252.823 119.247,252.823 118.761 C 252.823 118.290,253.066 118.033,253.512 118.033 C 253.944 118.033,254.287 117.692,254.430 117.122 C 254.578 116.534,254.914 116.211,255.380 116.211 C 255.844 116.211,256.102 115.966,256.102 115.525 C 256.102 115.145,256.427 114.754,256.831 114.649 C 257.267 114.535,257.559 114.152,257.559 113.695 C 257.559 113.015,258.105 112.731,259.107 112.889 C 259.258 112.913,259.381 112.616,259.381 112.229 C 259.381 111.841,259.709 111.420,260.109 111.293 C 260.510 111.166,260.838 110.745,260.838 110.358 C 260.838 109.740,261.136 109.591,262.204 109.675 C 262.354 109.687,262.570 109.318,262.684 108.856 C 262.815 108.320,263.115 108.054,263.509 108.123 C 263.850 108.183,264.106 108.101,264.079 107.941 C 263.917 106.980,264.216 106.412,264.936 106.309 C 265.387 106.245,265.756 105.982,265.756 105.724 C 265.756 105.167,266.688 104.524,267.114 104.787 C 267.278 104.889,267.390 104.837,267.361 104.672 C 267.171 103.575,267.465 103.097,268.331 103.097 C 269.100 103.097,269.225 102.967,269.035 102.368 C 268.809 101.658,269.107 101.468,270.219 101.612 C 270.472 101.645,270.674 101.287,270.674 100.807 C 270.674 100.146,270.866 99.949,271.487 99.971 C 271.935 99.987,272.324 99.795,272.353 99.545 C 272.381 99.294,272.425 98.925,272.450 98.725 C 272.475 98.525,272.823 98.361,273.224 98.361 C 273.710 98.361,273.953 98.118,273.953 97.632 C 273.953 97.231,274.117 96.883,274.317 96.858 C 274.517 96.833,274.886 96.789,275.137 96.761 C 275.387 96.732,275.579 96.343,275.563 95.895 C 275.541 95.278,275.739 95.082,276.383 95.082 C 276.988 95.082,277.231 94.873,277.231 94.353 C 277.231 93.733,386.686 92.989,393.534 93.563 C 393.984 93.601,394.171 93.351,394.171 92.710 C 394.171 92.033,394.364 91.803,394.934 91.803 C 395.378 91.803,395.773 91.513,395.878 91.108 C 395.978 90.726,396.373 90.332,396.755 90.232 C 397.160 90.126,397.450 89.731,397.450 89.287 C 397.450 88.756,397.681 88.525,398.213 88.525 C 398.669 88.525,399.052 88.232,399.166 87.796 C 399.271 87.395,399.501 87.067,399.678 87.067 C 400.128 87.067,400.102 9.204,399.652 9.047 C 399.460 8.980,399.262 8.305,399.212 7.547 C 399.141 6.470,398.945 6.125,398.317 5.967 C 397.866 5.854,397.416 5.380,397.292 4.886 C 397.171 4.403,396.829 4.007,396.532 4.007 C 396.235 4.007,395.993 3.679,395.993 3.279 C 395.993 2.878,395.870 2.570,395.719 2.593 C 394.788 2.740,394.224 2.445,394.041 1.715 C 393.874 1.051,393.547 0.860,392.453 0.788 C 391.695 0.738,391.020 0.540,390.953 0.348 C 390.770 -0.176,246.368 -0.123,246.193 0.402 C 246.119 0.623,245.368 0.819,244.523 0.838 C 243.679 0.856,243.007 1.044,243.031 1.255 C 243.130 2.144,242.947 2.476,242.259 2.656 C 241.843 2.764,241.530 3.153,241.530 3.558 C 241.530 4.122,241.340 4.234,240.619 4.096 C 239.840 3.948,239.709 4.057,239.709 4.851 C 239.709 5.460,239.458 5.859,238.980 6.011 C 238.579 6.138,238.251 6.466,238.251 6.739 C 238.251 7.012,237.883 7.288,237.432 7.352 C 236.896 7.428,236.612 7.719,236.611 8.192 C 236.611 8.590,236.332 8.969,235.991 9.035 C 235.650 9.101,235.270 9.472,235.147 9.859 C 235.024 10.247,234.607 10.565,234.220 10.565 C 233.772 10.565,233.515 10.816,233.515 11.254 C 233.515 11.688,233.173 12.029,232.591 12.175 C 232.083 12.302,231.711 12.607,231.764 12.852 C 231.886 13.407,229.962 15.352,229.178 15.467 C 228.859 15.514,228.577 15.741,228.552 15.973 C 228.527 16.204,228.486 16.557,228.461 16.758 C 228.436 16.958,228.196 17.122,227.927 17.122 C 227.659 17.122,227.256 17.524,227.033 18.015 C 226.750 18.635,226.399 18.864,225.881 18.764 C 225.304 18.653,225.137 18.811,225.137 19.468 C 225.137 20.009,224.873 20.385,224.408 20.506 C 224.007 20.611,223.679 20.958,223.679 21.277 C 223.679 21.842,223.279 22.014,222.281 21.878 C 221.947 21.832,221.869 22.047,222.033 22.563 C 222.218 23.147,222.063 23.394,221.336 23.670 C 220.822 23.866,220.401 24.276,220.401 24.581 C 220.401 24.927,220.066 25.137,219.514 25.137 C 218.778 25.137,218.654 25.284,218.785 26.008 C 218.910 26.697,218.753 26.927,218.033 27.108 C 217.532 27.233,217.122 27.579,217.122 27.876 C 217.122 28.173,216.958 28.436,216.758 28.461 C 216.557 28.486,216.204 28.527,215.973 28.552 C 215.741 28.577,215.514 28.859,215.467 29.178 C 215.352 29.962,213.407 31.886,212.852 31.764 C 212.607 31.711,212.302 32.083,212.175 32.591 C 212.029 33.173,211.688 33.515,211.254 33.515 C 210.808 33.515,210.565 33.772,210.565 34.244 C 210.565 34.730,210.322 34.973,209.836 34.973 C 209.316 34.973,209.107 35.216,209.107 35.821 C 209.107 36.464,208.911 36.663,208.299 36.641 C 207.770 36.622,207.440 36.863,207.345 37.337 C 207.265 37.735,206.891 38.278,206.514 38.541 C 206.137 38.805,205.829 39.235,205.829 39.497 C 205.829 39.812,205.510 39.911,204.878 39.790 C 204.041 39.630,203.956 39.702,204.173 40.387 C 204.369 41.002,204.225 41.240,203.485 41.521 C 202.971 41.716,202.550 42.126,202.550 42.432 C 202.550 42.917,201.883 43.172,200.994 43.028 C 200.840 43.003,200.786 43.383,200.875 43.874 C 201.002 44.574,200.867 44.790,200.245 44.878 C 199.756 44.948,199.410 45.293,199.341 45.783 C 199.252 46.404,199.037 46.539,198.336 46.412 C 197.846 46.324,197.465 46.377,197.491 46.532 C 197.637 47.432,197.362 48.025,196.721 48.193 C 196.306 48.302,195.993 48.690,195.993 49.096 C 195.993 49.669,195.805 49.772,195.029 49.624 C 194.153 49.456,194.083 49.526,194.250 50.403 C 194.373 51.046,194.277 51.366,193.959 51.366 C 193.698 51.366,193.268 51.674,193.004 52.051 C 192.740 52.428,192.198 52.802,191.799 52.882 C 191.325 52.978,191.085 53.308,191.104 53.837 C 191.130 54.561,190.672 54.840,189.709 54.688 C 189.558 54.664,189.435 54.973,189.435 55.373 C 189.435 55.859,189.192 56.102,188.707 56.102 C 188.235 56.102,187.978 56.345,187.978 56.791 C 187.978 57.222,187.637 57.566,187.067 57.709 C 186.566 57.835,186.157 58.173,186.157 58.460 C 186.157 59.124,184.408 60.892,183.640 61.004 C 183.321 61.051,183.040 61.279,183.015 61.510 C 182.990 61.741,182.949 62.095,182.923 62.295 C 182.898 62.495,182.628 62.659,182.322 62.659 C 182.017 62.659,181.614 63.061,181.428 63.552 C 181.187 64.185,180.872 64.403,180.344 64.302 C 179.758 64.189,179.599 64.348,179.599 65.048 C 179.599 65.620,179.391 65.938,179.019 65.938 C 178.699 65.938,178.352 66.266,178.248 66.667 C 178.058 67.392,177.751 67.395,101.597 67.395 L 25.137 67.395 25.137 46.266 L 25.137 25.137 109.629 25.137 L 194.121 25.137 194.238 24.317 C 194.326 23.703,194.568 23.520,195.199 23.588 C 195.884 23.662,196.000 23.547,195.818 22.973 C 195.583 22.233,196.740 21.269,197.250 21.780 C 197.393 21.923,197.478 21.876,197.437 21.676 C 197.252 20.757,197.522 20.401,198.403 20.401 C 199.223 20.401,199.332 20.274,199.182 19.490 C 199.036 18.726,199.147 18.579,199.868 18.579 C 200.486 18.579,200.729 18.374,200.729 17.851 C 200.729 17.316,200.971 17.122,201.639 17.122 C 202.140 17.122,202.531 16.999,202.507 16.849 C 202.354 15.882,202.634 15.301,203.253 15.301 C 203.705 15.301,203.998 15.008,204.073 14.481 C 204.158 13.880,204.417 13.674,205.043 13.708 C 205.754 13.746,205.869 13.609,205.731 12.888 C 205.602 12.215,205.724 12.022,206.278 12.022 C 206.685 12.022,207.072 11.708,207.181 11.289 C 207.287 10.886,207.763 10.459,208.240 10.339 C 208.717 10.219,209.107 9.893,209.107 9.614 C 209.107 9.336,209.350 9.107,209.647 9.107 C 209.944 9.107,210.285 8.713,210.406 8.231 C 210.527 7.749,210.940 7.273,211.324 7.172 C 211.711 7.071,212.022 6.673,212.022 6.278 C 212.022 5.714,212.212 5.602,212.933 5.740 C 213.716 5.889,213.843 5.781,213.843 4.961 C 213.843 4.250,214.029 4.007,214.572 4.007 C 215.058 4.007,215.301 3.764,215.301 3.279 C 215.301 2.647,215.806 2.379,216.791 2.488 C 216.909 2.501,217.027 1.946,217.053 1.256 L 217.100 0.000 110.554 0.000 C 49.144 0.000,4.007 0.136,4.007 0.322 M121.480 113.388 C 121.385 113.638,121.349 169.581,121.400 237.705 L 121.494 361.566 135.064 361.662 L 148.634 361.758 148.634 237.921 C 148.634 169.811,148.534 113.826,148.413 113.509 C 148.117 112.738,121.772 112.619,121.480 113.388"></path>
    <path id="path_logo_1" d="M0.000 3.670 C 0.000 5.144,1.218 5.039,1.390 3.549 C 1.483 2.745,1.359 2.550,0.753 2.550 C 0.155 2.550,0.000 2.781,0.000 3.670 M216.800 153.927 C 216.777 154.134,216.263 154.490,215.659 154.718 C 214.657 155.096,214.597 155.211,214.969 156.028 C 215.754 157.751,217.523 156.186,217.014 154.218 C 216.920 153.852,216.823 153.721,216.800 153.927"></path>
  </g>
</svg>
